<svg width="34" height="34" viewBox="0 0 34 34" fill="none" xmlns="http://www.w3.org/2000/svg">
<path d="M27.6263 22.6667H9.20964L5.66797 8.5H31.168L27.6263 22.6667Z" fill="black"/>
<path d="M2.125 4.25H4.60417L5.66667 8.5M5.66667 8.5L9.20833 22.6667H27.625L31.1667 8.5H5.66667Z" stroke="black" stroke-width="2" stroke-linecap="round" stroke-linejoin="round"/>
<path d="M9.20703 29.75C10.3806 29.75 11.332 28.7986 11.332 27.625C11.332 26.4514 10.3806 25.5 9.20703 25.5C8.03343 25.5 7.08203 26.4514 7.08203 27.625C7.08203 28.7986 8.03343 29.75 9.20703 29.75Z" stroke="black" stroke-width="2" stroke-linecap="round" stroke-linejoin="round"/>
<path d="M27.625 29.75C28.7986 29.75 29.75 28.7986 29.75 27.625C29.75 26.4514 28.7986 25.5 27.625 25.5C26.4514 25.5 25.5 26.4514 25.5 27.625C25.5 28.7986 26.4514 29.75 27.625 29.75Z" stroke="black" stroke-width="2" stroke-linecap="round" stroke-linejoin="round"/>
</svg>
