<svg width="778" height="940" viewBox="0 0 778 940" fill="none" xmlns="http://www.w3.org/2000/svg">
<rect x="351.156" y="304.238" width="99.8988" height="411.704" fill="black"/>
<path d="M375.369 234.609H425.322V268.368L451.055 304.236H351.156L375.369 268.368V234.609Z" fill="black"/>
<path d="M400.35 52.9766L424.6 133.577H376.099L400.35 52.9766Z" fill="black"/>
<rect x="375.375" y="140.766" width="49.9494" height="86.2763" fill="black"/>
<rect x="351.156" y="725.023" width="99.8988" height="10.5953" fill="black"/>
<rect x="146.82" y="251.262" width="99.8988" height="411.704" fill="black"/>
<path d="M171.033 181.633H220.986V215.391L246.719 251.259H146.82L171.033 215.391V181.633Z" fill="black"/>
<path d="M196.014 0L220.264 80.6002H171.763L196.014 0Z" fill="black"/>
<rect x="171.039" y="87.7891" width="49.9494" height="86.2763" fill="black"/>
<rect x="146.82" y="672.047" width="99.8988" height="10.5953" fill="black"/>
<rect x="460.137" y="333" width="99.8988" height="411.704" fill="black"/>
<path d="M484.35 263.371H534.302V297.129L560.036 332.998H460.137L484.35 297.129V263.371Z" fill="black"/>
<path d="M509.33 81.7383L533.58 162.338H485.08L509.33 81.7383Z" fill="black"/>
<rect x="484.355" y="169.527" width="49.9494" height="86.2763" fill="black"/>
<rect x="460.137" y="753.785" width="99.8988" height="10.5953" fill="black"/>
<rect x="569.117" y="357.215" width="99.8988" height="411.704" fill="black"/>
<path d="M593.33 287.586H643.283V321.344L669.016 357.212H569.117L593.33 321.344V287.586Z" fill="black"/>
<path d="M618.311 105.953L642.561 186.553H594.06L618.311 105.953Z" fill="black"/>
<rect x="593.336" y="193.742" width="49.9494" height="86.2763" fill="black"/>
<rect x="569.117" y="778" width="99.8988" height="10.5953" fill="black"/>
<rect x="678.098" y="385.977" width="99.8988" height="411.704" fill="black"/>
<path d="M702.31 316.348H752.263V350.106L777.996 385.974H678.098L702.31 350.106V316.348Z" fill="black"/>
<path d="M727.291 134.715L751.541 215.315H703.041L727.291 134.715Z" fill="black"/>
<rect x="702.316" y="222.504" width="49.9494" height="86.2763" fill="black"/>
<rect x="678.098" y="806.762" width="99.8988" height="10.5953" fill="black"/>
<rect x="246.441" y="855.344" width="99.8988" height="411.704" transform="rotate(-78.7581 246.441 855.344)" fill="black"/>
<path d="M182.869 818.021L192.607 769.027L225.718 775.608L265.914 757.361L246.439 855.343L215.979 824.602L182.869 818.021Z" fill="black"/>
<path d="M9.59182 758.11L93.3732 750.038L83.9179 797.608L9.59182 758.11Z" fill="black"/>
<rect x="90.8281" y="799.719" width="49.9494" height="86.2763" transform="rotate(-78.7581 90.8281 799.719)" fill="black"/>
<rect x="659.148" y="937.375" width="99.8988" height="10.5953" transform="rotate(-78.7581 659.148 937.375)" fill="black"/>
</svg>
