<svg width="20" height="18" viewBox="0 0 20 18" fill="none" xmlns="http://www.w3.org/2000/svg">
<path fill-rule="evenodd" clip-rule="evenodd" d="M5.5 0C2.46244 0 0 2.46245 0 5.5C0 11 6.5 16 10 17.1631C13.5 16 20 11 20 5.5C20 2.46245 17.5375 0 14.5 0C12.6398 0 10.9953 0.92345 10 2.3369C9.00465 0.92345 7.36015 0 5.5 0ZM6.25 8.5C6.25 8.08579 6.58579 7.75 7 7.75H9.25V5.5C9.25 5.08579 9.58579 4.75 10 4.75C10.4142 4.75 10.75 5.08579 10.75 5.5V7.75H13C13.4142 7.75 13.75 8.08579 13.75 8.5C13.75 8.91421 13.4142 9.25 13 9.25H10.75V11.5C10.75 11.9142 10.4142 12.25 10 12.25C9.58579 12.25 9.25 11.9142 9.25 11.5V9.25H7C6.58579 9.25 6.25 8.91421 6.25 8.5Z" fill="#F91414"/>
</svg>
