<svg width="1903" height="299" viewBox="0 0 1903 299" fill="none" xmlns="http://www.w3.org/2000/svg">
<path fill-rule="evenodd" clip-rule="evenodd" d="M64.0226 279H296.023L608.022 211H732V69.5H608.022L296.023 1H64.0226C64.0226 1 0.855479 13.6874 1.00025 144C1.14023 270 64.0226 279 64.0226 279ZM739.465 67H740V193H841V69.4016L838.022 56.5H745.522L739.465 67ZM740 215V201H841V211.098L838.022 224L841.022 240V298.5H738.022V240L741.522 224L739.099 215H740ZM911.522 211H849V69.5H911.522C911.522 69.5 917.079 50 1011.02 50C1102.16 50 1116.52 69.5 1116.52 69.5H1177V211H1116.52C1116.52 211 1098.16 243.5 1011.02 243.5C917.164 243.5 911.522 211 911.522 211ZM1185 211H1187.02L1192.02 224L1187.02 240V298.5H1292.52V243.5L1287.52 224L1290 217.558V203H1185V211ZM1185 195V60.0048L1187.02 56.5H1279.52L1287.52 64.5L1290 66.9778V195H1185ZM1365.52 211H1298V69.5H1365.52L1417.42 37.0617C1417.57 37.2113 1417.74 37.3947 1417.93 37.6134C1418.64 38.3943 1419.66 39.6263 1420.91 41.3814C1423.4 44.8907 1426.77 50.4977 1430.16 58.7805C1436.93 75.3448 1443.78 102.643 1443.78 145.304C1443.78 197.238 1436.9 223.935 1430.22 237.574C1426.88 244.372 1423.62 247.878 1421.32 249.669C1420.51 250.297 1419.82 250.719 1419.27 251H1417.52L1365.52 211ZM1424.17 39.0659C1423.62 38.2885 1423.1 37.6016 1422.63 37H1458.12C1458.28 37.1599 1458.47 37.3636 1458.69 37.6134C1459.4 38.3943 1460.42 39.6263 1461.67 41.3814C1464.16 44.8907 1467.53 50.4977 1470.92 58.7805C1477.69 75.3448 1484.54 102.643 1484.54 145.304C1484.54 197.238 1477.66 223.935 1470.98 237.574C1467.64 244.372 1464.38 247.878 1462.08 249.669C1461.27 250.297 1460.58 250.719 1460.03 251H1425.85C1428.29 248.591 1431.07 244.92 1433.81 239.335C1440.89 224.9 1447.78 197.493 1447.78 145.304C1447.78 102.215 1440.86 74.3893 1433.86 57.2671C1430.36 48.7066 1426.84 42.8297 1424.17 39.0659ZM1466.61 251H1480.02L1485.52 246H1526.02L1531.52 249L1697.02 251L1703.02 246L1825.52 249L1829.52 246H1856.52C1856.52 246 1905.66 235.5 1902.16 143.5C1898.78 54.5637 1856.52 42 1856.52 42H1825.52L1820.02 37H1463.39C1463.86 37.6016 1464.38 38.2885 1464.93 39.0659C1467.6 42.8297 1471.12 48.7066 1474.62 57.2671C1481.62 74.3893 1488.54 102.215 1488.54 145.304C1488.54 197.493 1481.65 224.9 1474.57 239.335C1471.83 244.92 1469.05 248.591 1466.61 251ZM58.499 236C81.9711 236 100.999 191.676 100.999 137C100.999 82.3238 81.9711 38 58.499 38C35.0269 38 15.999 82.3238 15.999 137C15.999 191.676 35.0269 236 58.499 236ZM1052.43 64.468C1052.43 64.4628 1052.43 64.4602 1052.43 64.4601C1052.43 64.4597 1052.4 64.4849 1052.37 64.5364C1052.4 64.5021 1052.42 64.4792 1052.43 64.468ZM1050.13 66C1048.58 65.209 1046.39 64.3573 1043.49 63.5491C1035.85 61.4121 1024.89 60 1012.5 60C1000.11 60 989.147 61.4121 981.503 63.5491C978.612 64.3573 976.416 65.209 974.867 66C976.416 66.791 978.612 67.6427 981.503 68.4509C989.147 70.5879 1000.11 72 1012.5 72C1024.89 72 1035.85 70.5879 1043.49 68.4509C1046.39 67.6427 1048.58 66.791 1050.13 66ZM972.567 64.4601C972.57 64.4597 972.594 64.4849 972.63 64.5365C972.581 64.4862 972.564 64.4604 972.567 64.4601ZM972.567 67.5399C972.564 67.5396 972.581 67.5138 972.63 67.4635C972.594 67.5151 972.57 67.5403 972.567 67.5399ZM1052.41 67.5149C1052.4 67.5024 1052.39 67.4853 1052.37 67.4636C1052.4 67.5151 1052.43 67.5403 1052.43 67.5399C1052.43 67.5398 1052.43 67.5374 1052.43 67.5325C1052.42 67.5284 1052.42 67.5225 1052.41 67.5149ZM1012.5 79C1038.18 79 1059 73.1797 1059 66C1059 58.8203 1038.18 53 1012.5 53C986.818 53 965.999 58.8203 965.999 66C965.999 73.1797 986.818 79 1012.5 79ZM1052 143.5C1052 165.315 1034.31 183 1012.5 183C990.683 183 972.998 165.315 972.998 143.5C972.998 121.685 990.683 104 1012.5 104C1034.31 104 1052 121.685 1052 143.5ZM1059 143.5C1059 169.181 1038.18 190 1012.5 190C986.817 190 965.998 169.181 965.998 143.5C965.998 117.819 986.817 97 1012.5 97C1038.18 97 1059 117.819 1059 143.5Z" fill="black"/>
<path d="M296.023 279V279.5H296.076L296.129 279.489L296.023 279ZM64.0226 279L63.9518 279.495L63.987 279.5H64.0226V279ZM608.022 211V210.5H607.969L607.916 210.511L608.022 211ZM732 211V211.5H732.5V211H732ZM732 69.5H732.5V69H732V69.5ZM608.022 69.5L607.915 69.9884L607.968 70H608.022V69.5ZM296.023 1L296.13 0.511632L296.077 0.5H296.023V1ZM64.0226 1V0.5H63.9729L63.9241 0.50979L64.0226 1ZM1.00025 144L1.50025 143.999L1.00025 144ZM740 67H740.5V66.5H740V67ZM739.465 67L739.032 66.7501L738.599 67.5H739.465V67ZM740 193H739.5V193.5H740V193ZM841 193V193.5H841.5V193H841ZM841 69.4016H841.5V69.3447L841.487 69.2892L841 69.4016ZM838.022 56.5L838.51 56.3876L838.42 56H838.022V56.5ZM745.522 56.5V56H745.234L745.089 56.2501L745.522 56.5ZM740 201V200.5H739.5V201H740ZM740 215V215.5H740.5V215H740ZM841 201H841.5V200.5H841V201ZM841 211.098L841.487 211.211L841.5 211.155V211.098H841ZM838.022 224L837.535 223.888L837.512 223.989L837.531 224.092L838.022 224ZM841.022 240H841.522V239.954L841.514 239.908L841.022 240ZM841.022 298.5V299H841.522V298.5H841.022ZM738.022 298.5H737.522V299H738.022V298.5ZM738.022 240L737.534 239.893L737.522 239.946V240H738.022ZM741.522 224L742.011 224.107L742.037 223.988L742.005 223.87L741.522 224ZM739.099 215V214.5H738.447L738.617 215.13L739.099 215ZM849 211H848.5V211.5H849V211ZM911.522 211L912.015 210.914L911.943 210.5H911.522V211ZM849 69.5V69H848.5V69.5H849ZM911.522 69.5V70H911.9L912.003 69.637L911.522 69.5ZM1116.52 69.5L1116.12 69.7965L1116.27 70H1116.52V69.5ZM1177 69.5H1177.5V69H1177V69.5ZM1177 211V211.5H1177.5V211H1177ZM1116.52 211V210.5H1116.23L1116.09 210.754L1116.52 211ZM1187.02 211L1187.49 210.821L1187.36 210.5H1187.02V211ZM1185 211H1184.5V211.5H1185V211ZM1192.02 224L1192.5 224.149L1192.55 223.983L1192.49 223.821L1192.02 224ZM1187.02 240L1186.54 239.851L1186.52 239.924V240H1187.02ZM1187.02 298.5H1186.52V299H1187.02V298.5ZM1292.52 298.5V299H1293.02V298.5H1292.52ZM1292.52 243.5H1293.02V243.437L1293.01 243.376L1292.52 243.5ZM1287.52 224L1287.05 223.821L1287 223.97L1287.04 224.124L1287.52 224ZM1290 217.558L1290.47 217.737L1290.5 217.651V217.558H1290ZM1290 203H1290.5V202.5H1290V203ZM1185 203V202.5H1184.5V203H1185ZM1185 195H1184.5V195.5H1185V195ZM1185 60.0048L1184.57 59.7549L1184.5 59.8709V60.0048H1185ZM1187.02 56.5V56H1186.73L1186.59 56.2501L1187.02 56.5ZM1279.52 56.5L1279.88 56.1464L1279.73 56H1279.52V56.5ZM1290 66.9778H1290.5V66.7707L1290.35 66.6242L1290 66.9778ZM1290 195V195.5H1290.5V195H1290ZM1298 211H1297.5V211.5H1298V211ZM1365.52 211L1365.83 210.604L1365.69 210.5H1365.52V211ZM1298 69.5V69H1297.5V69.5H1298ZM1365.52 69.5V70H1365.66L1365.79 69.924L1365.52 69.5ZM1417.42 37.0617L1417.78 36.7158L1417.5 36.4222L1417.16 36.6377L1417.42 37.0617ZM1417.93 37.6134L1417.56 37.9477L1417.56 37.9477L1417.93 37.6134ZM1420.91 41.3814L1420.5 41.6709L1420.5 41.6709L1420.91 41.3814ZM1430.16 58.7805L1429.69 58.9697L1429.69 58.9697L1430.16 58.7805ZM1430.22 237.574L1429.77 237.354L1429.77 237.354L1430.22 237.574ZM1421.32 249.669L1421.01 249.274L1421.01 249.274L1421.32 249.669ZM1419.27 251V251.5H1419.39L1419.5 251.445L1419.27 251ZM1417.52 251L1417.22 251.396L1417.35 251.5H1417.52V251ZM1422.63 37V36.5H1421.6L1422.24 37.3086L1422.63 37ZM1424.17 39.0659L1424.58 38.7764L1424.58 38.7764L1424.17 39.0659ZM1458.12 37L1458.48 36.6524L1458.33 36.5H1458.12V37ZM1458.69 37.6134L1458.32 37.9477L1458.32 37.9477L1458.69 37.6134ZM1461.67 41.3814L1461.26 41.6709L1461.26 41.6709L1461.67 41.3814ZM1470.92 58.7805L1470.45 58.9697L1470.45 58.9697L1470.92 58.7805ZM1470.98 237.574L1470.53 237.354L1470.53 237.354L1470.98 237.574ZM1462.08 249.669L1461.77 249.274L1461.77 249.274L1462.08 249.669ZM1460.03 251V251.5H1460.15L1460.26 251.445L1460.03 251ZM1425.85 251L1425.5 250.644L1424.63 251.5H1425.85V251ZM1433.81 239.335L1434.26 239.555L1434.26 239.555L1433.81 239.335ZM1433.86 57.2671L1434.32 57.0779L1434.32 57.0779L1433.86 57.2671ZM1480.02 251V251.5H1480.21L1480.36 251.37L1480.02 251ZM1466.61 251L1466.26 250.644L1465.39 251.5H1466.61V251ZM1485.52 246V245.5H1485.33L1485.19 245.63L1485.52 246ZM1526.02 246L1526.26 245.561L1526.15 245.5H1526.02V246ZM1531.52 249L1531.28 249.439L1531.39 249.498L1531.52 249.5L1531.52 249ZM1697.02 251L1697.02 251.5L1697.2 251.502L1697.34 251.384L1697.02 251ZM1703.02 246L1703.03 245.5L1702.85 245.496L1702.7 245.616L1703.02 246ZM1825.52 249L1825.51 249.5L1825.68 249.504L1825.82 249.4L1825.52 249ZM1829.52 246V245.5H1829.35L1829.22 245.6L1829.52 246ZM1856.52 246V246.5H1856.57L1856.63 246.489L1856.52 246ZM1902.16 143.5L1901.66 143.519L1901.66 143.519L1902.16 143.5ZM1856.52 42L1856.66 41.5207L1856.59 41.5H1856.52V42ZM1825.52 42L1825.18 42.37L1825.33 42.5H1825.52V42ZM1820.02 37L1820.36 36.63L1820.21 36.5H1820.02V37ZM1463.39 37V36.5H1462.36L1463 37.3086L1463.39 37ZM1464.93 39.0659L1465.34 38.7764L1465.34 38.7764L1464.93 39.0659ZM1474.62 57.2671L1475.08 57.0779L1475.08 57.0779L1474.62 57.2671ZM1474.57 239.335L1475.02 239.555L1475.02 239.555L1474.57 239.335ZM1052.43 64.4601L1052.48 63.9628L1052.48 63.9624L1052.43 64.4601ZM1052.43 64.468L1052.01 64.1871L1052.01 64.188L1052.43 64.468ZM1052.37 64.5364L1051.96 64.2522L1052.73 64.8842L1052.37 64.5364ZM1043.49 63.5491L1043.63 63.0676L1043.63 63.0676L1043.49 63.5491ZM1050.13 66L1050.36 66.4453L1051.23 66L1050.36 65.5547L1050.13 66ZM981.503 63.5491L981.638 64.0306L981.638 64.0306L981.503 63.5491ZM974.867 66L974.64 65.5547L973.768 66L974.64 66.4453L974.867 66ZM981.503 68.4509L981.638 67.9694L981.638 67.9694L981.503 68.4509ZM1043.49 68.4509L1043.63 68.9324L1043.63 68.9324L1043.49 68.4509ZM972.567 64.4601L972.615 64.9577L972.616 64.9576L972.567 64.4601ZM972.63 64.5365L972.271 64.8841L973.042 64.2525L972.63 64.5365ZM972.567 67.5399L972.616 67.0424L972.615 67.0423L972.567 67.5399ZM972.63 67.4635L973.042 67.7475L972.271 67.1159L972.63 67.4635ZM1052.37 67.4636L1052.73 67.1158L1051.96 67.7479L1052.37 67.4636ZM1052.41 67.5149L1052.8 67.1978L1052.8 67.1955L1052.41 67.5149ZM1052.43 67.5399L1052.48 68.0376L1052.48 68.0374L1052.43 67.5399ZM1052.43 67.5325L1052.85 67.2588L1052.84 67.2524L1052.43 67.5325ZM296.023 278.5H64.0226V279.5H296.023V278.5ZM607.916 210.511L295.916 278.511L296.129 279.489L608.129 211.489L607.916 210.511ZM732 210.5H608.022V211.5H732V210.5ZM731.5 69.5V211H732.5V69.5H731.5ZM608.022 70H732V69H608.022V70ZM295.915 1.48837L607.915 69.9884L608.13 69.0116L296.13 0.511632L295.915 1.48837ZM64.0226 1.5H296.023V0.5H64.0226V1.5ZM1.50025 143.999C1.42795 78.9231 17.1635 43.2956 32.8456 23.9476C40.6882 14.2717 48.5275 8.65433 54.3942 5.4576C57.3282 3.85892 59.7698 2.86507 61.4731 2.27186C62.3248 1.97526 62.9918 1.77883 63.4434 1.65706C63.6692 1.59617 63.8412 1.55395 63.9554 1.52721C64.0125 1.51383 64.0552 1.50433 64.083 1.4983C64.0968 1.49528 64.107 1.49313 64.1134 1.4918C64.1166 1.49113 64.1188 1.49067 64.1201 1.49041C64.1207 1.49028 64.121 1.49023 64.1213 1.49016C64.1213 1.49016 64.1211 1.49021 64.0226 1C63.9241 0.50979 63.9234 0.509935 63.9225 0.510128C63.9218 0.510258 63.9206 0.510502 63.9194 0.510764C63.9168 0.511288 63.9133 0.512013 63.9088 0.512946C63.8999 0.514812 63.8872 0.51751 63.8707 0.521089C63.8377 0.528246 63.7898 0.538929 63.7274 0.553539C63.6026 0.582759 63.4199 0.627689 63.1831 0.691542C62.7095 0.819248 62.0195 1.02266 61.1442 1.3275C59.3936 1.93717 56.9015 2.95259 53.9158 4.57949C47.9432 7.83392 39.9997 13.533 32.0687 23.318C16.2034 42.8919 0.427775 78.7644 0.500249 144.001L1.50025 143.999ZM64.0226 279C64.0934 278.505 64.0937 278.505 64.0937 278.505C64.0934 278.505 64.0931 278.505 64.0925 278.505C64.0912 278.505 64.089 278.504 64.0858 278.504C64.0795 278.503 64.0694 278.501 64.0556 278.499C64.0279 278.495 63.9854 278.488 63.9286 278.478C63.8149 278.458 63.6438 278.426 63.4191 278.379C62.9696 278.284 62.3057 278.129 61.4579 277.886C59.7624 277.401 57.3317 276.567 54.4103 275.174C48.5686 272.388 40.7605 267.365 32.9403 258.421C17.3042 240.537 1.57015 206.918 1.50025 143.999L0.500249 144.001C0.570329 207.082 16.3475 240.963 32.1875 259.079C40.1054 268.135 48.0267 273.237 53.9798 276.076C56.9558 277.496 59.4389 278.349 61.1828 278.848C62.0547 279.097 62.7419 279.258 63.2137 279.358C63.4495 279.407 63.6315 279.441 63.7558 279.463C63.818 279.474 63.8657 279.482 63.8985 279.487C63.9149 279.489 63.9276 279.491 63.9365 279.493C63.9409 279.493 63.9444 279.494 63.947 279.494C63.9483 279.494 63.9495 279.495 63.9501 279.495C63.951 279.495 63.9518 279.495 64.0226 279ZM740 66.5H739.465V67.5H740V66.5ZM740.5 193V67H739.5V193H740.5ZM841 192.5H740V193.5H841V192.5ZM840.5 69.4016V193H841.5V69.4016H840.5ZM837.535 56.6124L840.512 69.514L841.487 69.2892L838.51 56.3876L837.535 56.6124ZM745.522 57H838.022V56H745.522V57ZM739.898 67.2499L745.956 56.7499L745.089 56.2501L739.032 66.7501L739.898 67.2499ZM739.5 201V215H740.5V201H739.5ZM841 200.5H740V201.5H841V200.5ZM841.5 211.098V201H840.5V211.098H841.5ZM838.51 224.112L841.487 211.211L840.512 210.986L837.535 223.888L838.51 224.112ZM841.514 239.908L838.514 223.908L837.531 224.092L840.531 240.092L841.514 239.908ZM841.522 298.5V240H840.522V298.5H841.522ZM738.022 299H841.022V298H738.022V299ZM737.522 240V298.5H738.522V240H737.522ZM741.034 223.893L737.534 239.893L738.511 240.107L742.011 224.107L741.034 223.893ZM738.617 215.13L741.04 224.13L742.005 223.87L739.582 214.87L738.617 215.13ZM740 214.5H739.099V215.5H740V214.5ZM849 211.5H911.522V210.5H849V211.5ZM848.5 69.5V211H849.5V69.5H848.5ZM911.522 69H849V70H911.522V69ZM1011.02 49.5C964.026 49.5 939.082 54.3762 925.869 59.2813C919.26 61.7349 915.568 64.2021 913.52 66.085C912.495 67.027 911.882 67.8225 911.521 68.3959C911.341 68.6824 911.224 68.9129 911.151 69.0775C911.114 69.1598 911.089 69.2256 911.071 69.2736C911.062 69.2976 911.056 69.3172 911.051 69.3321C911.049 69.3396 911.047 69.3459 911.045 69.3511C911.044 69.3536 911.044 69.3559 911.043 69.3579C911.043 69.3589 911.042 69.3602 911.042 69.3607C911.042 69.3619 911.041 69.363 911.522 69.5C912.003 69.637 912.003 69.638 912.003 69.6389C912.003 69.6391 912.002 69.6399 912.002 69.6403C912.002 69.6411 912.002 69.6416 912.002 69.6418C912.002 69.6423 912.002 69.6415 912.002 69.6396C912.004 69.6358 912.007 69.6274 912.011 69.6145C912.021 69.5887 912.037 69.545 912.064 69.4845C912.118 69.3635 912.213 69.175 912.368 68.9283C912.678 68.4353 913.233 67.7074 914.197 66.8212C916.126 65.0479 919.695 62.6401 926.217 60.2187C939.269 55.3738 964.075 50.5 1011.02 50.5V49.5ZM1116.52 69.5C1116.92 69.2035 1116.92 69.2029 1116.92 69.2021C1116.92 69.2018 1116.92 69.201 1116.92 69.2003C1116.92 69.1989 1116.92 69.1972 1116.92 69.1953C1116.91 69.1913 1116.91 69.1862 1116.91 69.18C1116.9 69.1675 1116.88 69.1504 1116.87 69.129C1116.83 69.086 1116.78 69.0253 1116.71 68.9482C1116.57 68.7938 1116.36 68.5735 1116.07 68.2968C1115.48 67.7433 1114.54 66.9644 1113.13 66.0358C1110.32 64.1789 1105.63 61.7234 1098.1 59.2745C1083.06 54.3778 1056.62 49.5 1011.02 49.5V50.5C1056.56 50.5 1082.88 55.3722 1097.8 60.2255C1105.25 62.6516 1109.85 65.0711 1112.58 66.8704C1113.94 67.77 1114.84 68.5145 1115.39 69.0274C1115.66 69.2839 1115.85 69.4826 1115.96 69.6139C1116.02 69.6795 1116.06 69.7283 1116.09 69.7592C1116.1 69.7746 1116.11 69.7855 1116.12 69.7918C1116.12 69.7949 1116.12 69.7969 1116.12 69.7976C1116.12 69.798 1116.12 69.7981 1116.12 69.7979C1116.12 69.7978 1116.12 69.7975 1116.12 69.7974C1116.12 69.797 1116.12 69.7965 1116.52 69.5ZM1177 69H1116.52V70H1177V69ZM1177.5 211V69.5H1176.5V211H1177.5ZM1116.52 211.5H1177V210.5H1116.52V211.5ZM1011.02 244C1054.65 244 1081.11 235.863 1096.68 227.693C1104.47 223.607 1109.52 219.516 1112.64 216.434C1114.2 214.893 1115.28 213.605 1115.96 212.698C1116.3 212.245 1116.55 211.886 1116.71 211.639C1116.79 211.515 1116.85 211.419 1116.89 211.353C1116.91 211.32 1116.93 211.294 1116.94 211.276C1116.94 211.267 1116.95 211.26 1116.95 211.255C1116.95 211.253 1116.95 211.251 1116.96 211.249C1116.96 211.248 1116.96 211.248 1116.96 211.247C1116.96 211.246 1116.96 211.246 1116.52 211C1116.09 210.754 1116.09 210.754 1116.09 210.754C1116.09 210.754 1116.09 210.754 1116.09 210.754C1116.09 210.754 1116.09 210.755 1116.08 210.757C1116.08 210.759 1116.08 210.764 1116.08 210.771C1116.07 210.784 1116.06 210.805 1116.04 210.833C1116 210.89 1115.95 210.977 1115.88 211.091C1115.73 211.32 1115.49 211.66 1115.16 212.095C1114.51 212.965 1113.46 214.216 1111.94 215.723C1108.89 218.734 1103.92 222.768 1096.22 226.807C1080.82 234.887 1054.53 243 1011.02 243V244ZM911.522 211C911.03 211.086 911.03 211.086 911.03 211.087C911.03 211.088 911.03 211.089 911.03 211.09C911.031 211.092 911.031 211.094 911.032 211.097C911.033 211.103 911.034 211.11 911.036 211.12C911.04 211.139 911.045 211.166 911.053 211.201C911.068 211.27 911.092 211.369 911.126 211.495C911.194 211.749 911.306 212.114 911.481 212.574C911.831 213.495 912.434 214.797 913.452 216.352C915.49 219.464 919.183 223.577 925.813 227.675C939.065 235.868 964.045 244 1011.02 244V243C964.141 243 939.371 234.882 926.338 226.825C919.825 222.798 916.242 218.786 914.289 215.804C913.312 214.312 912.741 213.075 912.415 212.219C912.253 211.791 912.151 211.457 912.091 211.235C912.061 211.123 912.042 211.04 912.03 210.986C912.024 210.959 912.02 210.939 912.017 210.927C912.016 210.921 912.015 210.917 912.015 210.915C912.015 210.914 912.015 210.913 912.015 210.913C912.015 210.913 912.015 210.914 912.015 210.914C912.015 210.914 912.015 210.914 911.522 211ZM1187.02 210.5H1185V211.5H1187.02V210.5ZM1192.49 223.821L1187.49 210.821L1186.55 211.179L1191.55 224.179L1192.49 223.821ZM1187.5 240.149L1192.5 224.149L1191.54 223.851L1186.54 239.851L1187.5 240.149ZM1187.52 298.5V240H1186.52V298.5H1187.52ZM1292.52 298H1187.02V299H1292.52V298ZM1292.02 243.5V298.5H1293.02V243.5H1292.02ZM1287.04 224.124L1292.04 243.624L1293.01 243.376L1288.01 223.876L1287.04 224.124ZM1289.53 217.378L1287.05 223.821L1287.99 224.179L1290.47 217.737L1289.53 217.378ZM1289.5 203V217.558H1290.5V203H1289.5ZM1290 202.5H1185V203.5H1290V202.5ZM1185.5 211V203H1184.5V211H1185.5ZM1185.5 195V60.0048H1184.5V195H1185.5ZM1185.43 60.2546L1187.45 56.7499L1186.59 56.2501L1184.57 59.7549L1185.43 60.2546ZM1187.02 57H1279.52V56H1187.02V57ZM1279.17 56.8536L1287.17 64.8536L1287.88 64.1464L1279.88 56.1464L1279.17 56.8536ZM1287.17 64.8536L1289.65 67.3313L1290.35 66.6242L1287.88 64.1464L1287.17 64.8536ZM1289.5 66.9778V195H1290.5V66.9778H1289.5ZM1185 195.5H1290V194.5H1185V195.5ZM1298 211.5H1365.52V210.5H1298V211.5ZM1297.5 69.5V211H1298.5V69.5H1297.5ZM1365.52 69H1298V70H1365.52V69ZM1417.16 36.6377L1365.26 69.076L1365.79 69.924L1417.69 37.4857L1417.16 36.6377ZM1418.31 37.2791C1418.11 37.0564 1417.93 36.8691 1417.78 36.7158L1417.06 37.4075C1417.2 37.5535 1417.37 37.733 1417.56 37.9477L1418.31 37.2791ZM1421.32 41.092C1420.06 39.3211 1419.02 38.0741 1418.31 37.2791L1417.56 37.9477C1418.25 38.7145 1419.27 39.9316 1420.5 41.6709L1421.32 41.092ZM1430.62 58.5914C1427.22 50.2739 1423.83 44.6331 1421.32 41.092L1420.5 41.6709C1422.97 45.1483 1426.32 50.7216 1429.69 58.9697L1430.62 58.5914ZM1444.28 145.304C1444.28 102.59 1437.42 75.2254 1430.62 58.5914L1429.69 58.9697C1436.44 75.4643 1443.28 102.697 1443.28 145.304H1444.28ZM1430.67 237.794C1437.4 224.056 1444.28 197.27 1444.28 145.304H1443.28C1443.28 197.206 1436.41 223.815 1429.77 237.354L1430.67 237.794ZM1421.63 250.063C1424 248.218 1427.31 244.647 1430.67 237.794L1429.77 237.354C1426.46 244.097 1423.24 247.539 1421.01 249.274L1421.63 250.063ZM1419.5 251.445C1420.08 251.149 1420.8 250.71 1421.63 250.063L1421.01 249.274C1420.23 249.884 1419.56 250.289 1419.04 250.555L1419.5 251.445ZM1417.52 251.5H1419.27V250.5H1417.52V251.5ZM1365.22 211.396L1417.22 251.396L1417.83 250.604L1365.83 210.604L1365.22 211.396ZM1422.24 37.3086C1422.71 37.9039 1423.22 38.5845 1423.76 39.3553L1424.58 38.7764C1424.02 37.9926 1423.5 37.2992 1423.03 36.6914L1422.24 37.3086ZM1458.12 36.5H1422.63V37.5H1458.12V36.5ZM1459.07 37.2791C1458.84 37.0248 1458.64 36.8167 1458.48 36.6524L1457.76 37.3476C1457.91 37.5032 1458.1 37.7025 1458.32 37.9477L1459.07 37.2791ZM1462.08 41.092C1460.82 39.3211 1459.78 38.0741 1459.07 37.2791L1458.32 37.9477C1459.01 38.7145 1460.03 39.9316 1461.26 41.6709L1462.08 41.092ZM1471.38 58.5914C1467.98 50.2739 1464.59 44.6331 1462.08 41.092L1461.26 41.6709C1463.73 45.1483 1467.08 50.7216 1470.45 58.9697L1471.38 58.5914ZM1485.04 145.304C1485.04 102.59 1478.18 75.2254 1471.38 58.5914L1470.45 58.9697C1477.19 75.4643 1484.04 102.697 1484.04 145.304H1485.04ZM1471.42 237.794C1478.16 224.056 1485.04 197.27 1485.04 145.304H1484.04C1484.04 197.206 1477.17 223.815 1470.53 237.354L1471.42 237.794ZM1462.39 250.063C1464.76 248.218 1468.06 244.647 1471.42 237.794L1470.53 237.354C1467.22 244.097 1464 247.539 1461.77 249.274L1462.39 250.063ZM1460.26 251.445C1460.84 251.149 1461.56 250.71 1462.39 250.063L1461.77 249.274C1460.99 249.884 1460.32 250.289 1459.8 250.555L1460.26 251.445ZM1425.85 251.5H1460.03V250.5H1425.85V251.5ZM1433.36 239.115C1430.64 244.658 1427.89 248.28 1425.5 250.644L1426.2 251.356C1428.69 248.901 1431.5 245.182 1434.26 239.555L1433.36 239.115ZM1447.28 145.304C1447.28 197.461 1440.39 224.779 1433.36 239.115L1434.26 239.555C1441.38 225.02 1448.28 197.525 1448.28 145.304H1447.28ZM1433.4 57.4563C1440.37 74.5088 1447.28 102.268 1447.28 145.304H1448.28C1448.28 102.161 1441.35 74.2699 1434.32 57.0779L1433.4 57.4563ZM1423.76 39.3553C1426.41 43.0873 1429.91 48.9305 1433.4 57.4563L1434.32 57.0779C1430.81 48.4827 1427.27 42.5721 1424.58 38.7764L1423.76 39.3553ZM1480.02 250.5H1466.61V251.5H1480.02V250.5ZM1485.19 245.63L1479.69 250.63L1480.36 251.37L1485.86 246.37L1485.19 245.63ZM1526.02 245.5H1485.52V246.5H1526.02V245.5ZM1531.76 248.561L1526.26 245.561L1525.78 246.439L1531.28 249.439L1531.76 248.561ZM1697.03 250.5L1531.53 248.5L1531.52 249.5L1697.02 251.5L1697.03 250.5ZM1702.7 245.616L1696.7 250.616L1697.34 251.384L1703.34 246.384L1702.7 245.616ZM1825.53 248.5L1703.03 245.5L1703.01 246.5L1825.51 249.5L1825.53 248.5ZM1829.22 245.6L1825.22 248.6L1825.82 249.4L1829.82 246.4L1829.22 245.6ZM1856.52 245.5H1829.52V246.5H1856.52V245.5ZM1901.66 143.519C1903.41 189.427 1892.02 214.921 1880.27 228.929C1874.39 235.936 1868.41 240.085 1863.91 242.48C1861.66 243.678 1859.78 244.438 1858.46 244.897C1857.8 245.127 1857.29 245.281 1856.94 245.378C1856.76 245.426 1856.63 245.46 1856.54 245.481C1856.5 245.492 1856.47 245.5 1856.45 245.505C1856.43 245.507 1856.43 245.509 1856.42 245.51C1856.42 245.51 1856.42 245.511 1856.42 245.511C1856.42 245.511 1856.42 245.511 1856.42 245.511C1856.42 245.511 1856.42 245.511 1856.52 246C1856.63 246.489 1856.63 246.489 1856.63 246.489C1856.63 246.489 1856.63 246.488 1856.63 246.488C1856.63 246.488 1856.63 246.487 1856.64 246.486C1856.65 246.485 1856.66 246.482 1856.67 246.479C1856.69 246.474 1856.73 246.465 1856.78 246.453C1856.88 246.429 1857.02 246.393 1857.21 246.342C1857.57 246.239 1858.11 246.078 1858.79 245.841C1860.15 245.367 1862.08 244.587 1864.38 243.363C1868.98 240.915 1875.07 236.689 1881.04 229.571C1892.98 215.329 1904.42 189.573 1902.66 143.481L1901.66 143.519ZM1856.52 42C1856.38 42.4793 1856.38 42.4792 1856.38 42.4791C1856.38 42.4792 1856.38 42.4792 1856.38 42.4793C1856.38 42.4795 1856.38 42.4799 1856.38 42.4805C1856.39 42.4817 1856.39 42.4837 1856.4 42.4865C1856.42 42.4921 1856.45 42.501 1856.49 42.5135C1856.56 42.5383 1856.67 42.5773 1856.82 42.6323C1857.12 42.7423 1857.57 42.9165 1858.14 43.1704C1859.28 43.6781 1860.92 44.5046 1862.91 45.7739C1866.88 48.3122 1872.22 52.6235 1877.68 59.7041C1888.59 73.8621 1899.98 99.1299 1901.66 143.519L1902.66 143.481C1900.97 98.9338 1889.53 73.4517 1878.47 59.0937C1872.94 51.9164 1867.51 47.5282 1863.45 44.9315C1861.42 43.6334 1859.73 42.7835 1858.55 42.2568C1857.96 41.9934 1857.49 41.8108 1857.17 41.6933C1857.01 41.6346 1856.88 41.5922 1856.8 41.5641C1856.76 41.55 1856.72 41.5395 1856.7 41.5324C1856.69 41.5288 1856.68 41.5261 1856.68 41.5241C1856.67 41.5232 1856.67 41.5224 1856.67 41.5218C1856.67 41.5216 1856.67 41.5213 1856.67 41.5211C1856.66 41.5209 1856.66 41.5207 1856.52 42ZM1825.52 42.5H1856.52V41.5H1825.52V42.5ZM1819.68 37.37L1825.18 42.37L1825.86 41.63L1820.36 36.63L1819.68 37.37ZM1463.39 37.5H1820.02V36.5H1463.39V37.5ZM1465.34 38.7764C1464.78 37.9926 1464.26 37.2992 1463.78 36.6914L1463 37.3086C1463.47 37.9039 1463.98 38.5845 1464.52 39.3553L1465.34 38.7764ZM1475.08 57.0779C1471.57 48.4827 1468.03 42.5721 1465.34 38.7764L1464.52 39.3553C1467.17 43.0873 1470.67 48.9305 1474.16 57.4563L1475.08 57.0779ZM1489.04 145.304C1489.04 102.161 1482.11 74.2699 1475.08 57.0779L1474.16 57.4563C1481.13 74.5088 1488.04 102.268 1488.04 145.304H1489.04ZM1475.02 239.555C1482.14 225.02 1489.04 197.525 1489.04 145.304H1488.04C1488.04 197.461 1481.15 224.779 1474.12 239.115L1475.02 239.555ZM1466.96 251.356C1469.45 248.901 1472.26 245.182 1475.02 239.555L1474.12 239.115C1471.4 244.658 1468.65 248.28 1466.26 250.644L1466.96 251.356ZM100.499 137C100.499 164.287 95.75 188.967 88.0916 206.806C84.262 215.727 79.7148 222.914 74.691 227.864C69.6693 232.812 64.1983 235.5 58.499 235.5V236.5C64.5358 236.5 70.2453 233.648 75.3928 228.576C80.5383 223.507 85.1491 216.196 89.0105 207.201C96.7341 189.209 101.499 164.389 101.499 137H100.499ZM58.499 38.5C64.1983 38.5 69.6693 41.1884 74.691 46.1361C79.7148 51.0859 84.262 58.273 88.0916 67.1937C95.75 85.0332 100.499 109.713 100.499 137H101.499C101.499 109.611 96.7341 84.7906 89.0105 66.7992C85.1491 57.8043 80.5383 50.4933 75.3928 45.4237C70.2453 40.352 64.5358 37.5 58.499 37.5V38.5ZM16.499 137C16.499 109.713 21.248 85.0332 28.9064 67.1937C32.736 58.273 37.2832 51.0859 42.307 46.1361C47.3287 41.1884 52.7998 38.5 58.499 38.5V37.5C52.4622 37.5 46.7528 40.352 41.6052 45.4237C36.4598 50.4933 31.8489 57.8043 27.9875 66.7992C20.2639 84.7906 15.499 109.611 15.499 137H16.499ZM58.499 235.5C52.7998 235.5 47.3287 232.812 42.307 227.864C37.2832 222.914 32.736 215.727 28.9064 206.806C21.248 188.967 16.499 164.287 16.499 137H15.499C15.499 164.389 20.2639 189.209 27.9875 207.201C31.8489 216.196 36.4598 223.507 41.6052 228.576C46.7528 233.648 52.4622 236.5 58.499 236.5V235.5ZM1052.38 64.9573C1052.25 64.9434 1052.1 64.8716 1052 64.7195C1051.93 64.5955 1051.93 64.4775 1051.93 64.4304C1051.94 64.3361 1051.97 64.2677 1051.97 64.2583C1051.99 64.2183 1052.01 64.1909 1052.01 64.1871L1052.84 64.749C1052.85 64.7399 1052.87 64.7086 1052.89 64.666C1052.89 64.6552 1052.92 64.5858 1052.93 64.4908C1052.93 64.4434 1052.93 64.3251 1052.86 64.2009C1052.77 64.0486 1052.62 63.9768 1052.48 63.9628L1052.38 64.9573ZM1052.78 64.8207C1052.79 64.8064 1052.79 64.8019 1052.79 64.8052C1052.79 64.8059 1052.78 64.815 1052.77 64.8279C1052.76 64.8332 1052.75 64.8488 1052.72 64.8665C1052.71 64.8748 1052.68 64.8925 1052.65 64.9098C1052.63 64.9186 1052.6 64.9315 1052.56 64.942C1052.53 64.9517 1052.46 64.9656 1052.38 64.9577L1052.48 63.9624C1052.33 63.9483 1052.23 64.0025 1052.21 64.0108C1052.17 64.0284 1052.15 64.0467 1052.14 64.0557C1052.11 64.0749 1052.09 64.0929 1052.08 64.1013C1052.06 64.1204 1052.04 64.139 1052.03 64.1523C1052.01 64.1811 1051.98 64.2149 1051.96 64.2522L1052.78 64.8207ZM1052.01 64.188C1052.02 64.1826 1052.02 64.1784 1052.02 64.1757C1052.02 64.173 1052.03 64.1709 1052.03 64.1697C1052.03 64.1673 1052.03 64.1667 1052.03 64.1679C1052.03 64.1705 1052.02 64.1774 1052.01 64.1887L1052.73 64.8842C1052.77 64.8442 1052.81 64.7963 1052.84 64.7481L1052.01 64.188ZM1043.36 64.0306C1046.23 64.8327 1048.39 65.6736 1049.9 66.4453L1050.36 65.5547C1048.77 64.7445 1046.54 63.8819 1043.63 63.0676L1043.36 64.0306ZM1012.5 60.5C1024.86 60.5 1035.77 61.909 1043.36 64.0306L1043.63 63.0676C1035.93 60.9152 1024.92 59.5 1012.5 59.5V60.5ZM981.638 64.0306C989.226 61.909 1000.14 60.5 1012.5 60.5V59.5C1000.08 59.5 989.067 60.9152 981.368 63.0676L981.638 64.0306ZM975.095 66.4453C976.606 65.6736 978.769 64.8327 981.638 64.0306L981.368 63.0676C978.456 63.8819 976.227 64.7445 974.64 65.5547L975.095 66.4453ZM981.638 67.9694C978.769 67.1673 976.606 66.3264 975.095 65.5547L974.64 66.4453C976.227 67.2555 978.456 68.1181 981.368 68.9324L981.638 67.9694ZM1012.5 71.5C1000.14 71.5 989.226 70.091 981.638 67.9694L981.368 68.9324C989.067 71.0848 1000.08 72.5 1012.5 72.5V71.5ZM1043.36 67.9694C1035.77 70.091 1024.86 71.5 1012.5 71.5V72.5C1024.92 72.5 1035.93 71.0848 1043.63 68.9324L1043.36 67.9694ZM1049.9 65.5547C1048.39 66.3264 1046.23 67.1673 1043.36 67.9694L1043.63 68.9324C1046.54 68.1181 1048.77 67.2555 1050.36 66.4453L1049.9 65.5547ZM972.616 64.9576C972.533 64.9658 972.468 64.9514 972.432 64.9416C972.395 64.931 972.365 64.9179 972.347 64.9091C972.312 64.8918 972.287 64.8741 972.276 64.8659C972.251 64.8484 972.235 64.8329 972.229 64.8277C972.216 64.8149 972.208 64.8059 972.208 64.8052C972.205 64.8018 972.209 64.8063 972.219 64.8204L973.042 64.2525C973.016 64.215 972.99 64.1812 972.965 64.1524C972.954 64.139 972.937 64.1205 972.917 64.1015C972.908 64.0932 972.889 64.0754 972.863 64.0563C972.85 64.0474 972.824 64.0292 972.788 64.0115C972.772 64.0037 972.665 63.9479 972.518 63.9625L972.616 64.9576ZM972.989 64.1888C972.972 64.1712 972.968 64.1648 972.971 64.1689C972.972 64.1704 972.975 64.1737 972.978 64.1787C972.981 64.1829 972.988 64.1925 972.996 64.206C972.999 64.2109 973.024 64.2511 973.043 64.309C973.048 64.3262 973.081 64.423 973.059 64.5474C973.046 64.6206 973.01 64.7269 972.915 64.8187C972.818 64.9133 972.704 64.9491 972.615 64.9577L972.519 63.9624C972.43 63.971 972.316 64.0069 972.218 64.1016C972.124 64.1936 972.087 64.3 972.074 64.3734C972.052 64.4983 972.085 64.5957 972.09 64.6138C972.109 64.6733 972.136 64.716 972.141 64.7241C972.159 64.7538 972.177 64.7776 972.187 64.7901C972.211 64.8197 972.239 64.8515 972.271 64.8841L972.989 64.1888ZM972.615 67.0423C972.704 67.0509 972.818 67.0867 972.915 67.1813C973.01 67.2731 973.046 67.3794 973.059 67.4526C973.081 67.577 973.048 67.6738 973.043 67.691C973.024 67.7489 972.999 67.7891 972.996 67.794C972.988 67.8075 972.981 67.8171 972.978 67.8213C972.975 67.8263 972.972 67.8296 972.971 67.8311C972.968 67.8352 972.972 67.8288 972.989 67.8112L972.271 67.1159C972.239 67.1485 972.211 67.1803 972.187 67.2099C972.177 67.2224 972.159 67.2462 972.141 67.2759C972.136 67.284 972.109 67.3267 972.09 67.3862C972.085 67.4043 972.052 67.5017 972.074 67.6266C972.087 67.7 972.124 67.8064 972.218 67.8984C972.316 67.9931 972.43 68.029 972.519 68.0376L972.615 67.0423ZM972.219 67.1796C972.209 67.1937 972.205 67.1982 972.208 67.1948C972.208 67.1941 972.216 67.1851 972.229 67.1723C972.235 67.1671 972.251 67.1516 972.276 67.1341C972.287 67.1259 972.312 67.1082 972.347 67.0909C972.365 67.0821 972.395 67.069 972.432 67.0584C972.468 67.0486 972.533 67.0342 972.616 67.0424L972.518 68.0375C972.665 68.0521 972.772 67.9963 972.788 67.9885C972.824 67.9708 972.85 67.9526 972.863 67.9437C972.889 67.9246 972.908 67.9068 972.917 67.8985C972.937 67.8795 972.954 67.861 972.965 67.8476C972.99 67.8188 973.016 67.785 973.042 67.7475L972.219 67.1796ZM1052.01 67.8113C1052.02 67.8184 1052.02 67.824 1052.02 67.828C1052.03 67.83 1052.03 67.8315 1052.03 67.8326C1052.03 67.8332 1052.03 67.8336 1052.03 67.8339C1052.03 67.8341 1052.03 67.8343 1052.03 67.8343L1052.8 67.1955C1052.78 67.1713 1052.75 67.1446 1052.73 67.1158L1052.01 67.8113ZM1052.38 67.0423C1052.46 67.0344 1052.53 67.0483 1052.56 67.058C1052.6 67.0684 1052.63 67.0814 1052.65 67.0902C1052.68 67.1075 1052.71 67.1252 1052.72 67.1335C1052.75 67.1511 1052.76 67.1668 1052.77 67.172C1052.78 67.1849 1052.79 67.194 1052.79 67.1947C1052.79 67.1981 1052.79 67.1935 1052.78 67.1792L1051.96 67.7479C1051.98 67.7852 1052.01 67.8189 1052.03 67.8477C1052.04 67.8611 1052.06 67.8796 1052.08 67.8988C1052.09 67.9071 1052.11 67.9251 1052.14 67.9443C1052.15 67.9533 1052.17 67.9716 1052.21 67.9892C1052.23 67.9976 1052.33 68.0517 1052.48 68.0376L1052.38 67.0423ZM1052.01 67.8062C1052.01 67.8029 1051.99 67.7735 1051.97 67.7309C1051.97 67.7208 1051.93 67.6465 1051.93 67.5453C1051.93 67.4918 1051.94 67.3733 1052.02 67.2541C1052.12 67.1148 1052.26 67.0546 1052.38 67.0425L1052.48 68.0374C1052.6 68.0253 1052.74 67.965 1052.84 67.8255C1052.92 67.7062 1052.93 67.5874 1052.93 67.5335C1052.93 67.4317 1052.9 67.3565 1052.89 67.3451C1052.87 67.3001 1052.85 67.267 1052.85 67.2588L1052.01 67.8062ZM1052.03 67.832C1052.03 67.8315 1052.03 67.8299 1052.02 67.8272C1052.02 67.8247 1052.02 67.8197 1052.01 67.8127L1052.84 67.2524C1052.83 67.2313 1052.81 67.2127 1052.8 67.1978L1052.03 67.832ZM1058.5 66C1058.5 67.536 1057.38 69.1153 1055.07 70.6431C1052.78 72.1578 1049.43 73.5413 1045.24 74.7109C1036.88 77.048 1025.31 78.5 1012.5 78.5V79.5C1025.37 79.5 1037.04 78.0419 1045.51 75.6739C1049.75 74.4909 1053.21 73.0731 1055.62 71.4773C1058.01 69.8945 1059.5 68.0538 1059.5 66H1058.5ZM1012.5 53.5C1025.31 53.5 1036.88 54.952 1045.24 57.2891C1049.43 58.4587 1052.78 59.8422 1055.07 61.3569C1057.38 62.8847 1058.5 64.464 1058.5 66H1059.5C1059.5 63.9462 1058.01 62.1055 1055.62 60.5227C1053.21 58.9269 1049.75 57.5091 1045.51 56.3261C1037.04 53.9581 1025.37 52.5 1012.5 52.5V53.5ZM966.499 66C966.499 64.464 967.617 62.8847 969.929 61.3569C972.22 59.8422 975.57 58.4587 979.753 57.2891C988.113 54.952 999.69 53.5 1012.5 53.5V52.5C999.626 52.5 987.954 53.9581 979.484 56.3261C975.252 57.5091 971.792 58.9269 969.377 60.5227C966.983 62.1055 965.499 63.9462 965.499 66H966.499ZM1012.5 78.5C999.69 78.5 988.113 77.048 979.753 74.7109C975.57 73.5413 972.22 72.1578 969.929 70.6431C967.617 69.1153 966.499 67.536 966.499 66H965.499C965.499 68.0538 966.983 69.8945 969.377 71.4773C971.792 73.0731 975.252 74.4909 979.484 75.6739C987.954 78.0419 999.626 79.5 1012.5 79.5V78.5ZM1012.5 183.5C1034.59 183.5 1052.5 165.591 1052.5 143.5H1051.5C1051.5 165.039 1034.04 182.5 1012.5 182.5V183.5ZM972.498 143.5C972.498 165.591 990.407 183.5 1012.5 183.5V182.5C990.959 182.5 973.498 165.039 973.498 143.5H972.498ZM1012.5 103.5C990.407 103.5 972.498 121.409 972.498 143.5H973.498C973.498 121.961 990.959 104.5 1012.5 104.5V103.5ZM1052.5 143.5C1052.5 121.409 1034.59 103.5 1012.5 103.5V104.5C1034.04 104.5 1051.5 121.961 1051.5 143.5H1052.5ZM1012.5 190.5C1038.46 190.5 1059.5 169.457 1059.5 143.5H1058.5C1058.5 168.905 1037.9 189.5 1012.5 189.5V190.5ZM965.498 143.5C965.498 169.457 986.541 190.5 1012.5 190.5V189.5C987.093 189.5 966.498 168.905 966.498 143.5H965.498ZM1012.5 96.5C986.541 96.5 965.498 117.543 965.498 143.5H966.498C966.498 118.095 987.093 97.5 1012.5 97.5V96.5ZM1059.5 143.5C1059.5 117.543 1038.46 96.5 1012.5 96.5V97.5C1037.9 97.5 1058.5 118.095 1058.5 143.5H1059.5Z" fill="black"/>
</svg>
