<svg width="24" height="24" viewBox="0 0 24 24" fill="none" xmlns="http://www.w3.org/2000/svg">
<path d="M20.8882 10.3033C21.0146 9.4554 20.9731 8.58735 20.7638 7.7527C20.4874 6.6501 19.918 5.6059 19.0557 4.74365C18.1935 3.88141 17.1493 3.31205 16.0467 3.03558C15.2121 2.82629 14.344 2.78484 13.4961 2.91123" stroke="#FF7A00" stroke-width="2" stroke-linecap="round" stroke-linejoin="round"/>
<path d="M17.0953 9.90173C17.2307 8.99343 16.9488 8.03493 16.2496 7.33573C15.5503 6.63653 14.5918 6.35458 13.6836 6.48998" stroke="#FF7A00" stroke-width="2" stroke-linecap="round" stroke-linejoin="round"/>
<path d="M7.1893 4.39844C7.5526 4.39844 7.8873 4.59545 8.0636 4.91307L9.28686 7.11647C9.44701 7.40497 9.4545 7.75392 9.30695 8.04907L8.12855 10.4059C8.12855 10.4059 8.47006 12.1616 9.89926 13.5908C11.3285 15.02 13.0783 15.3556 13.0783 15.3556L15.4348 14.1774C15.7301 14.0297 16.0793 14.0374 16.3679 14.1978L18.5776 15.4263C18.8949 15.6027 19.0917 15.9373 19.0917 16.3003V18.8371C19.0917 20.1289 17.8917 21.062 16.6677 20.6489C14.1537 19.8007 10.2514 18.1856 7.77796 15.7121C5.30451 13.2387 3.68941 9.33637 2.84114 6.82242C2.42813 5.59837 3.36117 4.39844 4.653 4.39844H7.1893Z" fill="#FF7A00" stroke="#FF7A00" stroke-width="2" stroke-linejoin="round"/>
</svg>
